<svg width="20" height="20" viewBox="0 0 20 20" fill="none" xmlns="http://www.w3.org/2000/svg">
<g clip-path="url(#clip0_14_90)">
<path d="M8.78827 2.03194C8.94119 2.20169 9.12807 2.33741 9.3368 2.43032C9.54554 2.52322 9.77146 2.57122 9.99993 2.57122C10.2284 2.57122 10.4543 2.52322 10.6631 2.43032C10.8718 2.33741 11.0587 2.20169 11.2116 2.03194L11.9999 1.16694C12.2259 0.91689 12.5237 0.742891 12.8524 0.668824C13.1812 0.594756 13.5248 0.62425 13.8361 0.753257C14.1475 0.882264 14.4113 1.10446 14.5913 1.38935C14.7713 1.67425 14.8587 2.00787 14.8416 2.34444L14.7824 3.51111C14.771 3.7387 14.8073 3.96616 14.8892 4.17884C14.971 4.39153 15.0964 4.58472 15.2574 4.74597C15.4184 4.90722 15.6115 5.03295 15.824 5.11508C16.0366 5.1972 16.264 5.23389 16.4916 5.22277L17.6583 5.16361C17.9946 5.14702 18.3279 5.23487 18.6123 5.4151C18.8968 5.59533 19.1186 5.85912 19.2473 6.17033C19.3759 6.48153 19.4052 6.82492 19.3311 7.15342C19.257 7.48193 19.0831 7.77947 18.8333 8.00527L17.9649 8.78861C17.7954 8.94174 17.6599 9.12875 17.5671 9.33753C17.4743 9.54631 17.4264 9.77223 17.4264 10.0007C17.4264 10.2292 17.4743 10.4551 17.5671 10.6639C17.6599 10.8726 17.7954 11.0596 17.9649 11.2128L18.8333 11.9961C19.0833 12.222 19.2573 12.5198 19.3314 12.8486C19.4054 13.1774 19.376 13.521 19.2469 13.8323C19.1179 14.1437 18.8957 14.4074 18.6109 14.5875C18.326 14.7675 17.9923 14.8549 17.6558 14.8378L16.4891 14.7786C16.261 14.7669 16.033 14.8032 15.8198 14.8851C15.6066 14.9671 15.413 15.0929 15.2515 15.2544C15.09 15.4159 14.9642 15.6095 14.8823 15.8226C14.8003 16.0358 14.764 16.2638 14.7758 16.4919L14.8349 17.6586C14.8499 17.9935 14.7613 18.3248 14.5814 18.6076C14.4014 18.8905 14.1388 19.111 13.8291 19.2394C13.5194 19.3677 13.1778 19.3976 12.8505 19.325C12.5233 19.2524 12.2263 19.0809 11.9999 18.8336L11.2158 17.9661C11.0627 17.7966 10.8758 17.6611 10.6671 17.5683C10.4583 17.4756 10.2325 17.4276 10.0041 17.4276C9.7757 17.4276 9.54985 17.4756 9.34114 17.5683C9.13242 17.6611 8.94549 17.7966 8.79243 17.9661L8.00493 18.8336C7.77894 19.082 7.48184 19.2547 7.15414 19.3281C6.82643 19.4015 6.48407 19.372 6.17372 19.2437C5.86337 19.1154 5.60014 18.8945 5.41991 18.6112C5.23968 18.3278 5.15122 17.9957 5.1666 17.6603L5.2266 16.4936C5.23833 16.2655 5.20205 16.0375 5.1201 15.8243C5.03814 15.6111 4.91235 15.4175 4.75085 15.256C4.58935 15.0945 4.39574 14.9687 4.18256 14.8868C3.96937 14.8048 3.74136 14.7685 3.51327 14.7803L2.3466 14.8394C2.01017 14.857 1.67655 14.77 1.39155 14.5904C1.10654 14.4107 0.884128 14.1473 0.754834 13.8362C0.625541 13.5251 0.59571 13.1816 0.669435 12.8529C0.743161 12.5242 0.91683 12.2263 1.1666 12.0003L2.0341 11.2169C2.20364 11.0638 2.33917 10.8768 2.43192 10.668C2.52468 10.4592 2.57261 10.2333 2.57261 10.0049C2.57261 9.7764 2.52468 9.55048 2.43192 9.34169C2.33917 9.13291 2.20364 8.94591 2.0341 8.79277L1.1666 8.00527C0.91764 7.77944 0.744502 7.48223 0.67085 7.15428C0.597199 6.82632 0.626629 6.48362 0.755117 6.17302C0.883606 5.86242 1.10488 5.59908 1.3887 5.419C1.67252 5.23893 2.00502 5.15089 2.34077 5.16694L3.50743 5.22611C3.73596 5.23812 3.96445 5.20193 4.17808 5.11989C4.39171 5.03785 4.58569 4.91179 4.74742 4.74989C4.90916 4.588 5.03503 4.3939 5.11687 4.18019C5.1987 3.96648 5.23467 3.73795 5.22243 3.50944L5.1666 2.34194C5.15085 2.00633 5.23904 1.67403 5.41914 1.39039C5.59923 1.10675 5.86245 0.885587 6.17288 0.757076C6.48331 0.628564 6.82584 0.598965 7.15372 0.672317C7.48159 0.74567 7.77885 0.9184 8.00493 1.16694L8.78827 2.03194Z" stroke="#212121" stroke-width="1.5" stroke-linecap="round" stroke-linejoin="round"/>
<path d="M6.25 10.002C6.25 10.9965 6.64509 11.9503 7.34835 12.6536C8.05161 13.3569 9.00544 13.752 10 13.752C10.9946 13.752 11.9484 13.3569 12.6516 12.6536C13.3549 11.9503 13.75 10.9965 13.75 10.002C13.75 9.00739 13.3549 8.05356 12.6516 7.3503C11.9484 6.64704 10.9946 6.25195 10 6.25195C9.00544 6.25195 8.05161 6.64704 7.34835 7.3503C6.64509 8.05356 6.25 9.00739 6.25 10.002Z" stroke="#212121" stroke-width="1.5" stroke-linecap="round" stroke-linejoin="round"/>
</g>
<defs>
<clipPath id="clip0_14_90">
<rect width="20" height="20" fill="white"/>
</clipPath>
</defs>
</svg>
