<svg width="20" height="20" viewBox="0 0 20 20" fill="none" xmlns="http://www.w3.org/2000/svg">
<g clip-path="url(#clip0_14_56)">
<path d="M2.8125 6.5625C2.8125 7.47418 3.17466 8.34852 3.81932 8.99318C4.46398 9.63784 5.33832 10 6.25 10C7.16168 10 8.03602 9.63784 8.68068 8.99318C9.32534 8.34852 9.6875 7.47418 9.6875 6.5625C9.6875 5.65082 9.32534 4.77648 8.68068 4.13182C8.03602 3.48716 7.16168 3.125 6.25 3.125C5.33832 3.125 4.46398 3.48716 3.81932 4.13182C3.17466 4.77648 2.8125 5.65082 2.8125 6.5625Z" stroke="black" stroke-width="1.5" stroke-linecap="round" stroke-linejoin="round"/>
<path d="M0.625 16.875C0.625 15.3832 1.21763 13.9524 2.27252 12.8975C3.32742 11.8426 4.75816 11.25 6.25 11.25C7.74184 11.25 9.17258 11.8426 10.2275 12.8975C11.2824 13.9524 11.875 15.3832 11.875 16.875" stroke="black" stroke-width="1.5" stroke-linecap="round" stroke-linejoin="round"/>
<path d="M11.8758 3.67999C12.3949 3.34273 12.9954 3.15188 13.6139 3.1276C14.2324 3.10332 14.846 3.2465 15.3899 3.54203C15.9338 3.83756 16.3878 4.27447 16.704 4.80662C17.0202 5.33878 17.1868 5.94644 17.1863 6.56544C17.1857 7.18444 17.018 7.79181 16.7009 8.32341C16.3838 8.85502 15.9291 9.29114 15.3847 9.58573C14.8403 9.88031 14.2264 10.0224 13.6079 9.99707C12.9895 9.97171 12.3893 9.77982 11.8708 9.44166" stroke="black" stroke-width="1.5" stroke-linecap="round" stroke-linejoin="round"/>
<path d="M12.5 11.3892C13.3238 11.2025 14.179 11.2036 15.0023 11.3924C15.8256 11.5811 16.596 11.9526 17.2562 12.4795C17.9164 13.0063 18.4497 13.6749 18.8165 14.4358C19.1832 15.1967 19.3741 16.0303 19.375 16.875" stroke="black" stroke-width="1.5" stroke-linecap="round" stroke-linejoin="round"/>
</g>
<defs>
<clipPath id="clip0_14_56">
<rect width="20" height="20" fill="white"/>
</clipPath>
</defs>
</svg>
