<svg width="20" height="20" viewBox="0 0 20 20" fill="none" xmlns="http://www.w3.org/2000/svg">
<path d="M18.3333 3.75065H7.5C7.38799 3.75065 7.27712 3.72807 7.17403 3.68426C7.07094 3.64045 6.97774 3.5763 6.9 3.49565L5.78167 2.33898C5.70393 2.25834 5.61073 2.19419 5.50764 2.15038C5.40455 2.10656 5.29368 2.08398 5.18167 2.08398H2.32167C2.03744 2.08398 1.76486 2.19689 1.56388 2.39787C1.36291 2.59884 1.25 2.87143 1.25 3.15565V12.9173" stroke="#212121" stroke-width="1.5" stroke-linecap="round" stroke-linejoin="round"/>
<path d="M4.58333 6.25H17.9167C17.9167 6.25 18.75 6.25 18.75 7.08333V17.0833C18.75 17.0833 18.75 17.9167 17.9167 17.9167H4.58333C4.58333 17.9167 3.75 17.9167 3.75 17.0833V7.08333C3.75 7.08333 3.75 6.25 4.58333 6.25Z" stroke="#212121" stroke-width="1.5" stroke-linecap="round" stroke-linejoin="round"/>
<path d="M6.66699 15.4155L8.70866 12.7897C8.83684 12.6403 9.01377 12.5411 9.20809 12.5097C9.40242 12.4782 9.60159 12.5166 9.77033 12.618L11.2503 13.7488L12.6362 11.9655C12.7182 11.8672 12.8217 11.7891 12.9388 11.7373C13.0559 11.6855 13.1833 11.6614 13.3112 11.6668C13.4391 11.6722 13.5641 11.707 13.6763 11.7684C13.7886 11.8299 13.8852 11.9165 13.9587 12.0213L16.2503 15.4155H6.66699Z" stroke="#212121" stroke-width="1.5" stroke-linecap="round" stroke-linejoin="round"/>
<path d="M6.66699 9.16602C6.66699 9.49754 6.79869 9.81548 7.03311 10.0499C7.26753 10.2843 7.58547 10.416 7.91699 10.416C8.24851 10.416 8.56646 10.2843 8.80088 10.0499C9.0353 9.81548 9.16699 9.49754 9.16699 9.16602C9.16699 8.83449 9.0353 8.51655 8.80088 8.28213C8.56646 8.04771 8.24851 7.91602 7.91699 7.91602C7.58547 7.91602 7.26753 8.04771 7.03311 8.28213C6.79869 8.51655 6.66699 8.83449 6.66699 9.16602Z" stroke="#212121" stroke-width="1.5" stroke-linecap="round" stroke-linejoin="round"/>
</svg>
