<svg width="20" height="20" viewBox="0 0 20 20" fill="none" xmlns="http://www.w3.org/2000/svg">
<g clip-path="url(#clip0_14_62)">
<path d="M7.63477 14.7741L10.1339 12.2741L10.1348 8.10742" stroke="#212121" stroke-width="1.5" stroke-linecap="round" stroke-linejoin="round"/>
<path d="M11.7982 6.02409L8.46484 3.10742L12.2148 0.607422" stroke="#212121" stroke-width="1.5" stroke-linecap="round" stroke-linejoin="round"/>
<path d="M3.08887 15.6071C3.88889 16.8601 5.01457 17.8719 6.34543 18.5343C7.67629 19.1967 9.16223 19.4847 10.6442 19.3675C12.1262 19.2504 13.5484 18.7324 14.7586 17.8691C15.9688 17.0058 16.9215 15.8296 17.5147 14.4665C18.1079 13.1034 18.3192 11.6046 18.1261 10.1306C17.933 8.65665 17.3427 7.26291 16.4184 6.09861C15.4941 4.93431 14.2705 4.04327 12.8788 3.52087C11.487 2.99847 9.97934 2.86437 8.5172 3.13292" stroke="#212121" stroke-width="1.5" stroke-linecap="round" stroke-linejoin="round"/>
<path d="M6.73299 3.68359C5.93512 4.03149 5.19781 4.50437 4.54883 5.08443" stroke="#212121" stroke-width="1.5" stroke-linecap="round" stroke-linejoin="round"/>
<path d="M3.09 6.79883C2.61736 7.53061 2.27009 8.33611 2.0625 9.18216" stroke="#212121" stroke-width="1.5" stroke-linecap="round" stroke-linejoin="round"/>
<path d="M1.81445 11.416C1.83225 12.2868 1.99155 13.1489 2.28612 13.9685" stroke="#212121" stroke-width="1.5" stroke-linecap="round" stroke-linejoin="round"/>
</g>
<defs>
<clipPath id="clip0_14_62">
<rect width="20" height="20" fill="white"/>
</clipPath>
</defs>
</svg>
