<svg width="40" height="40" viewBox="0 0 40 40" fill="none" xmlns="http://www.w3.org/2000/svg">
<circle cx="20" cy="20" r="20" fill="#F7F7F7"/>
<path d="M25.8478 25.7386C24.965 26.1782 24.064 26.398 23.1414 26.398C21.4074 26.398 19.977 25.8018 18.852 24.6112C17.7369 23.3988 17.1794 21.8818 17.1794 20.0583C17.1794 19.4471 17.2391 18.8426 17.3569 18.2481C17.4747 17.652 17.6539 17.1191 17.8912 16.6478C18.1285 16.1765 18.4388 15.7236 18.8205 15.2889C19.9355 14.0766 21.3758 13.4704 23.1414 13.4704C24.0773 13.4704 24.9816 13.6819 25.8577 14.1032L28.3318 9.40883C27.4075 8.96253 26.4468 8.60783 25.4528 8.34138C24.4307 8.11324 23.4517 8 22.5125 8C20.8731 8 19.3813 8.27477 18.0406 8.82431C16.6899 9.36386 15.4719 10.1915 14.3884 11.3106C13.7595 11.9734 13.2451 12.6128 12.8485 13.2306C12.4519 13.8468 12.1234 14.5012 11.8662 15.1973C11.2887 16.6328 11 18.2132 11 19.9317C11 22.0766 11.443 24.03 12.3291 25.7902C13.2152 27.4888 14.5012 28.9192 16.1904 30.0799C17.0367 30.6811 17.9974 31.1291 19.0694 31.4255C20.143 31.7202 21.2896 31.8684 22.5075 31.8684C23.4683 31.8684 24.4473 31.7485 25.4495 31.5104C26.2443 31.3356 27.2068 30.9858 28.3351 30.4563L25.8494 25.7369L25.8478 25.7386Z" fill="#FC5E64"/>
</svg>
