<svg width="20" height="20" viewBox="0 0 20 20" fill="none" xmlns="http://www.w3.org/2000/svg">
<g clip-path="url(#clip0_14_377)">
<path d="M10 6.25V13.75" stroke="#212121" stroke-width="1.5" stroke-linecap="round" stroke-linejoin="round"/>
<path d="M6.25 10H13.75" stroke="#212121" stroke-width="1.5" stroke-linecap="round" stroke-linejoin="round"/>
<path d="M0.625 10C0.625 12.4864 1.61272 14.871 3.37087 16.6291C5.12903 18.3873 7.5136 19.375 10 19.375C12.4864 19.375 14.871 18.3873 16.6291 16.6291C18.3873 14.871 19.375 12.4864 19.375 10C19.375 7.5136 18.3873 5.12903 16.6291 3.37087C14.871 1.61272 12.4864 0.625 10 0.625C7.5136 0.625 5.12903 1.61272 3.37087 3.37087C1.61272 5.12903 0.625 7.5136 0.625 10Z" stroke="#212121" stroke-width="1.5" stroke-linecap="round" stroke-linejoin="round"/>
</g>
<defs>
<clipPath id="clip0_14_377">
<rect width="20" height="20" fill="white"/>
</clipPath>
</defs>
</svg>
