<svg width="20" height="20" viewBox="0 0 20 20" fill="none" xmlns="http://www.w3.org/2000/svg">
<g clip-path="url(#clip0_14_76)">
<path d="M8.6175 7.57666C8.49912 7.52122 8.3691 7.49522 8.23851 7.50088C8.10792 7.50654 7.98064 7.54369 7.8675 7.60916C7.75711 7.67103 7.665 7.76094 7.60048 7.8698C7.53595 7.97866 7.50129 8.10262 7.5 8.22916V11.77C7.50115 11.8966 7.53565 12.0206 7.60002 12.1296C7.66439 12.2386 7.75637 12.3287 7.86667 12.3908C7.97985 12.4562 8.10712 12.4932 8.23769 12.4989C8.36825 12.5045 8.49826 12.4786 8.61667 12.4233L11.9392 10.8542C12.1055 10.7817 12.247 10.6623 12.3464 10.5106C12.4459 10.3588 12.4988 10.1814 12.4988 9.99999C12.4988 9.81859 12.4459 9.64114 12.3464 9.4894C12.247 9.33767 12.1055 9.21826 11.9392 9.14582L8.6175 7.57666Z" stroke="black" stroke-width="1.5" stroke-linecap="round" stroke-linejoin="round"/>
<path d="M4.39917 2.5H15.6008C15.6008 2.5 16.25 2.5 16.25 3.14917V16.8508C16.25 16.8508 16.25 17.5 15.6008 17.5H4.39917C4.39917 17.5 3.75 17.5 3.75 16.8508V3.14917C3.75 3.14917 3.75 2.5 4.39917 2.5Z" stroke="black" stroke-width="1.5" stroke-linecap="round" stroke-linejoin="round"/>
<path d="M1.61167 4.375C1.48122 4.37587 1.35222 4.40243 1.23204 4.45316C1.11185 4.50389 1.00284 4.57779 0.91122 4.67065C0.819598 4.76351 0.747165 4.8735 0.698055 4.99436C0.648946 5.11521 0.624121 5.24455 0.625 5.375V14.625C0.624121 14.7554 0.648946 14.8848 0.698055 15.0056C0.747165 15.1265 0.819598 15.2365 0.91122 15.3294C1.00284 15.4222 1.11185 15.4961 1.23204 15.5468C1.35222 15.5976 1.48122 15.6241 1.61167 15.625" stroke="black" stroke-width="1.5" stroke-linecap="round" stroke-linejoin="round"/>
<path d="M18.3883 4.375C18.5188 4.37587 18.6478 4.40243 18.768 4.45316C18.8881 4.50389 18.9972 4.57779 19.0888 4.67065C19.1804 4.76351 19.2528 4.8735 19.3019 4.99436C19.3511 5.11521 19.3759 5.24455 19.375 5.375V14.625C19.3759 14.7554 19.3511 14.8848 19.3019 15.0056C19.2528 15.1265 19.1804 15.2365 19.0888 15.3294C18.9972 15.4222 18.8881 15.4961 18.768 15.5468C18.6478 15.5976 18.5188 15.6241 18.3883 15.625" stroke="black" stroke-width="1.5" stroke-linecap="round" stroke-linejoin="round"/>
</g>
<defs>
<clipPath id="clip0_14_76">
<rect width="20" height="20" fill="white"/>
</clipPath>
</defs>
</svg>
