<svg width="20" height="20" viewBox="0 0 20 20" fill="none" xmlns="http://www.w3.org/2000/svg">
<g clip-path="url(#clip0_19_408)">
<path d="M17.5 19.375H4.375C3.87772 19.375 3.40081 19.1775 3.04917 18.8258C2.69754 18.4742 2.5 17.9973 2.5 17.5" stroke="#212121" stroke-width="1.5" stroke-linecap="round" stroke-linejoin="round"/>
<path d="M5 0.625C4.33696 0.625 3.70107 0.888392 3.23223 1.35723C2.76339 1.82607 2.5 2.46196 2.5 3.125V17.5C2.5 17.0027 2.69754 16.5258 3.04917 16.1742C3.40081 15.8225 3.87772 15.625 4.375 15.625H16.875C17.0408 15.625 17.1997 15.5592 17.3169 15.4419C17.4342 15.3247 17.5 15.1658 17.5 15V1.25C17.5 1.08424 17.4342 0.925269 17.3169 0.808058C17.1997 0.690848 17.0408 0.625 16.875 0.625H5Z" stroke="#212121" stroke-width="1.5" stroke-linecap="round" stroke-linejoin="round"/>
<path d="M16.25 19.375V15.625" stroke="#212121" stroke-width="1.5" stroke-linecap="round" stroke-linejoin="round"/>
</g>
<defs>
<clipPath id="clip0_19_408">
<rect width="20" height="20" fill="white"/>
</clipPath>
</defs>
</svg>
