<svg width="20" height="20" viewBox="0 0 20 20" fill="none" xmlns="http://www.w3.org/2000/svg">
<path d="M13.75 17.9275C13.75 18.1201 13.7056 18.3102 13.6201 18.4828C13.5345 18.6553 13.4103 18.8058 13.257 18.9225C13.1037 19.0391 12.9256 19.1188 12.7364 19.1552C12.5473 19.1917 12.3523 19.1839 12.1667 19.1325L3.41667 16.7017C3.15365 16.6289 2.92167 16.4721 2.75615 16.2551C2.59063 16.0381 2.50067 15.7729 2.5 15.5V2.07253C2.49996 1.87991 2.54443 1.6899 2.62995 1.5173C2.71546 1.34471 2.83971 1.19422 2.99298 1.07757C3.14626 0.960917 3.32442 0.881266 3.51356 0.844832C3.70269 0.808397 3.89769 0.816166 4.08333 0.86753L12.8333 3.69336C13.0968 3.76625 13.329 3.92348 13.4946 4.14096C13.6602 4.35844 13.7499 4.6242 13.75 4.89753V17.9275Z" stroke="#212121" stroke-width="1.5" stroke-linecap="round" stroke-linejoin="round"/>
<path d="M3.75 0.822266H16.25C16.5815 0.822266 16.8995 0.953962 17.1339 1.18838C17.3683 1.4228 17.5 1.74074 17.5 2.07227V15.1973C17.5 15.5288 17.3683 15.8467 17.1339 16.0811C16.8995 16.3156 16.5815 16.4473 16.25 16.4473H13.75" stroke="#212121" stroke-width="1.5" stroke-linecap="round" stroke-linejoin="round"/>
</svg>
