<svg width="18" height="24" viewBox="0 0 18 24" fill="none" xmlns="http://www.w3.org/2000/svg">
<path d="M14.8478 17.7386C13.965 18.1782 13.064 18.398 12.1414 18.398C10.4074 18.398 8.97702 17.8018 7.85199 16.6112C6.73692 15.3988 6.17938 13.8818 6.17938 12.0583C6.17938 11.4471 6.23911 10.8426 6.35693 10.2481C6.47474 9.65196 6.65395 9.11907 6.89123 8.64779C7.12852 8.17652 7.43882 7.72357 7.82046 7.28893C8.93554 6.0766 10.3758 5.47044 12.1414 5.47044C13.0773 5.47044 13.9816 5.68193 14.8577 6.10325L17.3318 1.40883C16.4075 0.962531 15.4468 0.607827 14.4528 0.341382C13.4307 0.113239 12.4517 0 11.5125 0C9.87307 0 8.38132 0.274771 7.04058 0.824313C5.68987 1.36386 4.47192 2.19151 3.38837 3.31057C2.75948 3.97336 2.24509 4.61282 1.8485 5.23064C1.45192 5.84679 1.12337 6.50125 0.866175 7.19734C0.288725 8.63281 0 10.2132 0 11.9317C0 14.0766 0.443043 16.03 1.32913 17.7902C2.21522 19.4888 3.50121 20.9192 5.19041 22.0799C6.03668 22.6811 6.99743 23.1291 8.06937 23.4255C9.14296 23.7202 10.2896 23.8684 11.5075 23.8684C12.4683 23.8684 13.4473 23.7485 14.4495 23.5104C15.2443 23.3356 16.2068 22.9858 17.3351 22.4563L14.8494 17.7369L14.8478 17.7386Z" fill="#FC5E64"/>
</svg>
